<?xml version="1.0" encoding="UTF-8"?>
<svg width="190px" height="22px" viewBox="0 0 190 22" version="1.1" xmlns="http://www.w3.org/2000/svg" xmlns:xlink="http://www.w3.org/1999/xlink">
    <title>编组 17</title>
    <g id="页面-1" stroke="none" strokeWidth="1" fill="none" fillRule="evenodd">
        <g id="应用图标" transform="translate(-360.000000, -461.000000)">
            <g id="编组-17" transform="translate(360.000000, 461.000000)">
                <path d="M39.1551474,1.68942563 L39.4432857,1.85130317 L31.8526728,14.9986304 C29.2667347,19.4776065 24.5493168,21.9587337 19.7214097,21.9004892 C14.8939689,21.9587337 10.176551,19.4776065 7.59061289,14.9986304 L7.59061289,14.9986304 L-1.63424829e-13,1.85130317 L0.28813826,1.68942563 C6.84465472,-1.89330254 15.0968332,0.397556679 18.8526728,6.90286162 L18.8526728,6.90286162 L19.721,8.407 L20.5906129,6.90286162 C24.3464525,0.397556679 32.598631,-1.89330254 39.1551474,1.68942563 Z M57.1551474,1.68942563 L57.4432857,1.85130317 L49.8526728,14.9986304 C46.0968332,21.5039353 37.8446547,23.7947945 31.2881383,20.2120663 L31,20.0501888 L38.5906129,6.90286162 C42.3464525,0.397556679 50.598631,-1.89330254 57.1551474,1.68942563 Z" id="形状结合" fill="#3175ED"></path>
                <g id="编组-16" transform="translate(66.359594, 1.450746)" fill="#FFFFFF" fillRule="nonzero">
                    <polygon id="路径" points="0.353921569 2.01176471 4.89901961 8.40098039 0 15.3117647 1.88137255 15.3117647 5.83039216 9.61176471 9.79803922 15.3117647 11.6794118 15.3117647 6.74313725 8.40098039 11.3254902 2.01176471 9.44411765 2.01176471 5.83039216 7.19019608 2.23529412 2.01176471"></polygon>
                    <path d="M17.1186275,5.42058824 C15.9637255,5.42058824 15.0509804,5.64411765 14.3431373,6.09117647 C13.5607843,6.5754902 13.0578431,7.33921569 12.8529412,8.34509804 L14.3245098,8.45686275 C14.4735294,7.84215686 14.7901961,7.37647059 15.2931373,7.07843137 C15.7401961,6.78039216 16.3176471,6.65 17.0254902,6.65 C18.7019608,6.65 19.5401961,7.45098039 19.5401961,9.07156863 L19.5401961,9.5745098 L17.2303922,9.61176471 C15.777451,9.63039216 14.6598039,9.90980392 13.877451,10.4313725 C12.9833333,10.9901961 12.554902,11.8098039 12.554902,12.9088235 C12.554902,13.6911765 12.8529412,14.3431373 13.4490196,14.8460784 C14.0264706,15.3303922 14.7901961,15.572549 15.7588235,15.572549 C16.6529412,15.572549 17.4539216,15.3676471 18.1617647,14.9764706 C18.7578431,14.6411765 19.2607843,14.2127451 19.6333333,13.6911765 L19.6333333,15.3117647 L21.0303922,15.3117647 L21.0303922,9.12745098 C21.0303922,8.00980392 20.7323529,7.13431373 20.1735294,6.50098039 C19.5029412,5.7745098 18.4970588,5.42058824 17.1186275,5.42058824 Z M19.5401961,10.6921569 L19.5401961,11.5117647 C19.5401961,12.2568627 19.1862745,12.927451 18.4970588,13.504902 C17.7892157,14.1009804 16.9882353,14.3990196 16.0754902,14.3990196 C15.4794118,14.3990196 14.995098,14.25 14.622549,13.9705882 C14.25,13.672549 14.0823529,13.3186275 14.0823529,12.8715686 C14.0823529,11.4745098 15.1627451,10.7666667 17.3235294,10.7294118 L19.5401961,10.6921569 Z" id="形状"></path>
                    <path d="M27.5686275,5.42058824 C26.8980392,5.42058824 26.3205882,5.6254902 25.8176471,6.03529412 C25.4078431,6.35196078 25.072549,6.79901961 24.8117647,7.35784314 L24.8117647,5.68137255 L23.3401961,5.68137255 L23.3401961,15.3117647 L24.8117647,15.3117647 L24.8117647,10.2078431 C24.8117647,9.31372549 25.0539216,8.55 25.5754902,7.91666667 C26.0784314,7.24607843 26.7117647,6.92941176 27.4568627,6.92941176 C27.922549,6.92941176 28.4068627,6.98529412 28.8911765,7.13431373 L28.8911765,5.64411765 C28.5372549,5.49509804 28.0901961,5.42058824 27.5686275,5.42058824 Z" id="路径"></path>
                    <polygon id="路径" points="29.077451 5.68137255 32.8960784 15.0882353 31.2382353 19 32.8588235 19 38.1303922 5.68137255 36.4911765 5.68137255 33.6411765 13.2813725 30.6980392 5.68137255"></polygon>
                    <polygon id="路径" points="39.154902 9.85392157 39.154902 11.1205882 48.5617647 11.1205882 48.5617647 9.85392157"></polygon>
                    <path d="M53.7401961,6.66862745 L67.1519608,6.66862745 L67.1519608,5.36470588 L53.7401961,5.36470588 L53.7401961,2.75686275 C58.2852941,2.64509804 62.3833333,2.23529412 66.0343137,1.49019608 L65.3637255,0.279411765 C61.5264706,1.08039216 57.2235294,1.50882353 52.4176471,1.56470588 L52.4176471,7.15294118 C52.3058824,10.9529412 51.5794118,13.9333333 50.2196078,16.0941176 L51.2068627,17.1186275 C52.7715686,14.6411765 53.6284314,11.3254902 53.7401961,7.15294118 L53.7401961,6.66862745 Z M65.6803922,9.27647059 L55.4539216,9.27647059 L55.4539216,17.1745098 L56.795098,17.1745098 L56.795098,16.2990196 L64.3392157,16.2990196 L64.3392157,17.1745098 L65.6803922,17.1745098 L65.6803922,9.27647059 Z M56.795098,14.995098 L56.795098,10.5617647 L64.3392157,10.5617647 L64.3392157,14.995098 L56.795098,14.995098 Z" id="形状"></path>
                    <path d="M83.6558824,9.4254902 L71.2127451,9.4254902 L71.2127451,17.1931373 L72.572549,17.1931373 L72.572549,16.2617647 L82.2960784,16.2617647 L82.2960784,17.1931373 L83.6558824,17.1931373 L83.6558824,9.4254902 Z M72.572549,14.9764706 L72.572549,10.7107843 L82.2960784,10.7107843 L82.2960784,14.9764706 L72.572549,14.9764706 Z M69.8901961,7.50686275 C74.7333333,7.32058824 79.1107843,7.05980392 83.0411765,6.70588235 C83.4882353,7.41372549 83.9539216,8.14019608 84.4196078,8.92254902 L85.7235294,8.28921569 C84.345098,6.03529412 82.854902,3.96764706 81.2529412,2.10490196 L80.0421569,2.68235294 C80.7872549,3.53921569 81.5137255,4.48921569 82.2215686,5.49509804 C79.0176471,5.79313725 75.627451,6.03529412 72.0509804,6.18431373 C73.727451,4.80588235 75.422549,2.90588235 77.0990196,0.521568627 L75.7205882,0.0558823529 C73.2990196,3.61372549 71.2686275,5.68137255 69.6294118,6.24019608 L69.8901961,7.50686275 Z" id="形状"></path>
                    <path d="M101.389216,7.45098039 L90.7529412,7.45098039 L90.7529412,17.1558824 L92.0941176,17.1558824 L92.0941176,16.3921569 L100.923529,16.3921569 L100.923529,17.1745098 L102.246078,17.1745098 L102.246078,12.3872549 L92.0941176,12.3872549 L92.0941176,11.1019608 L101.389216,11.1019608 L101.389216,7.45098039 Z M92.0941176,15.2 L92.0941176,13.4676471 L100.923529,13.4676471 L100.923529,15.2 L92.0941176,15.2 Z M92.0941176,10.0215686 L92.0941176,8.53137255 L100.085294,8.53137255 L100.085294,10.0215686 L92.0941176,10.0215686 Z M103.959804,5.19705882 L96.8813725,5.19705882 C96.695098,4.6754902 96.4901961,4.20980392 96.2852941,3.78137255 L97.2911765,4.39607843 C97.7009804,3.8372549 98.0921569,3.24117647 98.427451,2.60784314 L99.6009804,2.60784314 C100.048039,3.20392157 100.439216,3.8372549 100.77451,4.50784314 L101.966667,4.06078431 C101.743137,3.61372549 101.426471,3.12941176 101.035294,2.60784314 L104.35098,2.60784314 L104.35098,1.43431373 L98.9676471,1.43431373 C99.1166667,1.06176471 99.2470588,0.689215686 99.377451,0.298039216 L98.0921569,0.018627451 C97.6823529,1.35980392 97.0490196,2.57058824 96.154902,3.68823529 L96.2666667,3.7627451 L94.9627451,3.98627451 C95.1676471,4.35882353 95.3539216,4.75 95.5401961,5.19705882 L88.1637255,5.19705882 L88.1637255,8.56862745 L89.4676471,8.56862745 L89.4676471,6.35196078 L102.655882,6.35196078 L102.655882,8.56862745 L103.959804,8.56862745 L103.959804,5.19705882 Z M90.3990196,2.60784314 L91.4607843,2.60784314 C91.9264706,3.27843137 92.3362745,3.96764706 92.6715686,4.6754902 L93.9009804,4.20980392 C93.6401961,3.70686275 93.2862745,3.16666667 92.8764706,2.60784314 L96.0058824,2.60784314 L96.0058824,1.43431373 L91.0137255,1.43431373 C91.1627451,1.06176471 91.3303922,0.689215686 91.4794118,0.279411765 L90.1941176,0 C89.672549,1.41568627 88.8529412,2.71960784 87.7352941,3.8745098 L88.9088235,4.61960784 C89.4676471,4.00490196 89.9519608,3.33431373 90.3990196,2.60784314 Z" id="形状"></path>
                    <path d="M113.12451,0.838235294 L113.12451,9.44411765 L117.017647,9.44411765 L117.017647,11.6421569 L112.807843,11.6421569 L112.807843,12.9088235 L117.017647,12.9088235 L117.017647,15.3303922 L112.02549,15.3303922 L112.02549,16.6156863 L123.239216,16.6156863 L123.239216,15.3303922 L118.358824,15.3303922 L118.358824,12.9088235 L122.55,12.9088235 L122.55,11.6421569 L118.358824,11.6421569 L118.358824,9.44411765 L122.233333,9.44411765 L122.233333,0.838235294 L113.12451,0.838235294 Z M120.948039,8.25196078 L118.358824,8.25196078 L118.358824,5.7372549 L120.948039,5.7372549 L120.948039,8.25196078 Z M117.017647,8.25196078 L114.409804,8.25196078 L114.409804,5.7372549 L117.017647,5.7372549 L117.017647,8.25196078 Z M114.409804,4.56372549 L114.409804,2.03039216 L117.017647,2.03039216 L117.017647,4.56372549 L114.409804,4.56372549 Z M118.358824,2.03039216 L120.948039,2.03039216 L120.948039,4.56372549 L118.358824,4.56372549 L118.358824,2.03039216 Z M106.54902,7.00392157 L106.54902,8.28921569 L108.579412,8.28921569 L108.579412,12.9647059 C107.778431,13.1882353 106.958824,13.3745098 106.139216,13.5235294 L106.47451,14.8088235 C108.44902,14.3245098 110.293137,13.7284314 112.006863,13.0205882 L112.006863,11.7166667 C111.336275,12.0147059 110.665686,12.2754902 109.957843,12.5176471 L109.957843,8.28921569 L112.006863,8.28921569 L112.006863,7.00392157 L109.957843,7.00392157 L109.957843,2.58921569 L112.230392,2.58921569 L112.230392,1.32254902 L106.288235,1.32254902 L106.288235,2.58921569 L108.579412,2.58921569 L108.579412,7.00392157 L106.54902,7.00392157 Z" id="形状"></path>
                </g>
            </g>
        </g>
    </g>
</svg>