<?xml version="1.0" encoding="UTF-8"?>
<svg width="80px" height="46px" viewBox="0 0 80 46" version="1.1" xmlns="http://www.w3.org/2000/svg" xmlns:xlink="http://www.w3.org/1999/xlink">
    <title>编组 15</title>
    <g id="页面-1" stroke="none" strokeWidth="1" fill="none" fillRule="evenodd">
        <g id="编组-15" transform="translate(0.000000, 0.986359)" fill="#0C97F9">
            <path d="M46.1285591,2.10131424 L46.1285591,2.10131424 L46.1285591,2.10131424 L46.1285591,23.2438733 C46.1285591,33.859067 37.5232445,42.4643816 26.9080509,42.4643816 L26.9080509,42.4643816 L26.9080509,42.4643816 L26.9080509,21.3218225 C26.9080509,10.7066289 35.5133655,2.10131424 46.1285591,2.10131424 Z" id="矩形备份-9" transform="translate(36.518305, 22.282848) rotate(-1410.000000) translate(-36.518305, -22.282848) "></path>
            <path d="M28.0237452,2.10131424 L28.0237452,2.10131424 L28.0237452,2.10131424 L28.0237452,23.2438733 C28.0237452,33.859067 19.4184305,42.4643816 8.80323693,42.4643816 L8.80323693,42.4643816 L8.80323693,42.4643816 L8.80323693,21.3218225 C8.80323693,10.7066289 17.4085516,2.10131424 28.0237452,2.10131424 Z" id="矩形备份-8" transform="translate(18.413491, 22.282848) scale(1, -1) rotate(-1410.000000) translate(-18.413491, -22.282848) "></path>
            <path d="M71.1967631,2.10131424 L71.1967631,2.10131424 L71.1967631,2.10131424 L71.1967631,23.2438733 C71.1967631,33.859067 62.5914484,42.4643816 51.9762548,42.4643816 L51.9762548,42.4643816 L51.9762548,42.4643816 L51.9762548,21.3218225 C51.9762548,10.7066289 60.5815695,2.10131424 71.1967631,2.10131424 Z" id="矩形备份-46" transform="translate(61.586509, 22.282848) rotate(-1410.000000) translate(-61.586509, -22.282848) "></path>
        </g>
    </g>
</svg>